<?xml version="1.0" encoding="utf-8"?>
<!-- Generator: Adobe Illustrator 25.2.0, SVG Export Plug-In . SVG Version: 6.00 Build 0)  -->
<svg version="1.1" id="Warstwa_1" xmlns="http://www.w3.org/2000/svg" xmlns:xlink="http://www.w3.org/1999/xlink" x="0px" y="0px"
	 viewBox="0 0 32 32" style="enable-background:new 0 0 32 32;" xml:space="preserve">
<style type="text/css">
	.st0{fill-rule:evenodd;clip-rule:evenodd;fill:#FFFFFF;}
</style>
<path class="st0" d="M15.5,4.4v1.3l-3.6,2.1l-1.2-2.1C11,5.2,11.1,4.6,10.8,4c-0.4-0.7-1.3-1-2-0.5s-1,1.3-0.5,2
	c0.3,0.6,1,0.8,1.6,0.7L11,8.3l-3.6,2.1L6.2,9.8c0.1-0.6-0.2-1.2-0.7-1.6C4.8,7.8,3.9,8,3.4,8.7s-0.2,1.6,0.5,2
	c0.6,0.3,1.3,0.2,1.7-0.2l1.1,0.6v4.2H4.4c-0.2-0.6-0.8-1-1.4-1c-0.8,0-1.5,0.7-1.5,1.5c0,0.8,0.7,1.5,1.5,1.5c0.7,0,1.2-0.4,1.4-1
	h2.4v4.2l-1.1,0.6C5.2,21,4.6,20.9,4,21.2c-0.7,0.4-1,1.3-0.5,2c0.4,0.7,1.3,1,2,0.5c0.6-0.3,0.8-1,0.7-1.6l1.1-0.6l3.6,2.1
	l-1.2,2.1c-0.6-0.1-1.2,0.2-1.6,0.7c-0.4,0.7-0.2,1.6,0.5,2s1.6,0.2,2-0.5c0.3-0.6,0.2-1.3-0.2-1.7l1.2-2.1l3.6,2.1v1.3
	c-0.6,0.2-1,0.8-1,1.4c0,0.8,0.7,1.5,1.5,1.5c0.8,0,1.5-0.7,1.5-1.5c0-0.7-0.4-1.2-1-1.4v-1.3l3.6-2.1l1.2,2.1
	c-0.4,0.5-0.5,1.2-0.2,1.7c0.4,0.7,1.3,1,2,0.5c0.7-0.4,1-1.3,0.5-2c-0.3-0.6-1-0.8-1.6-0.7L21,23.7l3.6-2.1l1.1,0.6
	c-0.1,0.6,0.2,1.2,0.7,1.6c0.7,0.4,1.6,0.2,2-0.5s0.2-1.6-0.5-2c-0.6-0.3-1.3-0.2-1.7,0.2l-1.1-0.6v-4.2h2.4c0.2,0.6,0.8,1,1.4,1
	c0.8,0,1.5-0.7,1.5-1.5c0-0.8-0.7-1.5-1.5-1.5c-0.7,0-1.2,0.4-1.4,1h-2.4v-4.2l1.1-0.6c0.5,0.4,1.2,0.5,1.7,0.2c0.7-0.4,1-1.3,0.5-2
	s-1.3-1-2-0.5c-0.6,0.3-0.8,1-0.7,1.6l-1.1,0.6L21,8.3l1.2-2.1c0.6,0.1,1.2-0.2,1.6-0.7c0.4-0.7,0.2-1.6-0.5-2
	c-0.7-0.4-1.6-0.2-2,0.5c-0.3,0.6-0.2,1.3,0.2,1.7l-1.2,2.1l-3.6-2.1V4.4c0.6-0.2,1-0.8,1-1.4c0-0.8-0.7-1.5-1.5-1.5
	c-0.8,0-1.5,0.7-1.5,1.5C14.5,3.7,14.9,4.2,15.5,4.4z M16,29.5c-0.3,0-0.5-0.2-0.5-0.5s0.2-0.5,0.5-0.5c0.3,0,0.5,0.2,0.5,0.5
	S16.3,29.5,16,29.5z M22.9,27c0.1,0.2,0.1,0.5-0.2,0.7s-0.5,0.1-0.7-0.2S22,27,22.2,26.8S22.8,26.8,22.9,27z M9.1,27
	c0.1-0.2,0.4-0.3,0.7-0.2c0.2,0.1,0.3,0.4,0.2,0.7c-0.1,0.2-0.4,0.3-0.7,0.2C9,27.6,8.9,27.2,9.1,27z M16,6.6l8.2,4.7v9.4L16,25.4
	l-8.2-4.7v-9.4C7.8,11.3,16,6.6,16,6.6z M16.2,7.6c-0.2-0.1-0.3-0.1-0.5,0l-6.9,4c-0.2,0.1-0.2,0.3-0.2,0.4v8c0,0.2,0.1,0.3,0.2,0.4
	l6.9,4c0.2,0.1,0.3,0.1,0.5,0l6.9-4c0.2-0.1,0.2-0.3,0.2-0.4v-8c0-0.2-0.1-0.3-0.2-0.4C23.2,11.6,16.2,7.6,16.2,7.6z M27.7,22.8
	c-0.1,0.2-0.4,0.3-0.7,0.2c-0.2-0.1-0.3-0.4-0.2-0.7c0.1-0.2,0.4-0.3,0.7-0.2C27.7,22.2,27.8,22.5,27.7,22.8z M4.3,22.8
	c-0.1-0.2-0.1-0.5,0.2-0.7C4.7,21.9,5,22,5.2,22.2s0.1,0.5-0.2,0.7C4.8,23.1,4.4,23,4.3,22.8z M11.5,18v-1.9l1.1,2.1
	c0.1,0.2,0.3,0.3,0.6,0.3c0.2-0.1,0.4-0.3,0.4-0.5v-4c0-0.3-0.2-0.5-0.5-0.5s-0.5,0.2-0.5,0.5v1.9l-1.1-2.1
	c-0.1-0.2-0.3-0.3-0.6-0.3c-0.2,0.1-0.4,0.3-0.4,0.5v4c0,0.3,0.2,0.5,0.5,0.5S11.5,18.3,11.5,18z M19.5,14.5V18
	c0,0.3,0.2,0.5,0.5,0.5s0.5-0.2,0.5-0.5v-3.5H21c0.3,0,0.5-0.2,0.5-0.5s-0.2-0.5-0.5-0.5h-2c-0.3,0-0.5,0.2-0.5,0.5s0.2,0.5,0.5,0.5
	H19.5z M15.5,16.5H16c0.3,0,0.5-0.2,0.5-0.5c0-0.3-0.2-0.5-0.5-0.5h-0.5v-1H17c0.3,0,0.5-0.2,0.5-0.5s-0.2-0.5-0.5-0.5h-2
	c-0.3,0-0.5,0.2-0.5,0.5v4c0,0.3,0.2,0.5,0.5,0.5s0.5-0.2,0.5-0.5V16.5z M3,15.5c0.3,0,0.5,0.2,0.5,0.5c0,0.3-0.2,0.5-0.5,0.5
	S2.5,16.3,2.5,16C2.5,15.7,2.7,15.5,3,15.5z M29,15.5c0.3,0,0.5,0.2,0.5,0.5c0,0.3-0.2,0.5-0.5,0.5s-0.5-0.2-0.5-0.5
	C28.5,15.7,28.7,15.5,29,15.5z M4.3,9.2C4.4,9,4.8,8.9,5,9.1c0.2,0.1,0.3,0.4,0.2,0.7C5,10,4.7,10.1,4.5,9.9
	C4.3,9.8,4.2,9.5,4.3,9.2z M27.7,9.2c0.1,0.2,0.1,0.5-0.2,0.7S27,10,26.8,9.8c-0.1-0.2-0.1-0.5,0.2-0.7S27.6,9,27.7,9.2z M9.9,4.5
	C10.1,4.7,10,5,9.8,5.2C9.5,5.3,9.2,5.2,9.1,5C8.9,4.8,9,4.4,9.3,4.3C9.5,4.2,9.8,4.3,9.9,4.5z M22.1,4.5c0.1-0.2,0.4-0.3,0.7-0.2
	s0.3,0.4,0.2,0.7c-0.1,0.2-0.4,0.3-0.7,0.2S21.9,4.7,22.1,4.5z M16,2.5c0.3,0,0.5,0.2,0.5,0.5S16.3,3.5,16,3.5
	c-0.3,0-0.5-0.2-0.5-0.5S15.7,2.5,16,2.5z"/>
</svg>
