<?xml version="1.0" encoding="utf-8"?>
<!-- Generator: Adobe Illustrator 25.2.0, SVG Export Plug-In . SVG Version: 6.00 Build 0)  -->
<svg version="1.1" id="Warstwa_1" xmlns="http://www.w3.org/2000/svg" xmlns:xlink="http://www.w3.org/1999/xlink" x="0px" y="0px"
	 viewBox="0 0 1024 1024" style="enable-background:new 0 0 1024 1024;" xml:space="preserve">
<g id="b1649502-9aff-4f04-9557-73d261c0fe12">
	<g id="e0c28d34-80f1-4a58-8b30-cee47f1d7a5f">
		<g>
			<path d="M512,50c62.4,0,122.9,12.2,179.8,36.3c55,23.3,104.4,56.6,146.9,99c42.4,42.4,75.8,91.9,99,146.9
				C961.8,389.1,974,449.6,974,512s-12.2,122.9-36.3,179.8c-23.3,55-56.6,104.4-99,146.9c-42.4,42.4-91.9,75.8-146.9,99
				C634.9,961.8,574.4,974,512,974s-122.9-12.2-179.8-36.3c-55-23.3-104.4-56.6-146.9-99c-42.4-42.4-75.8-91.9-99-146.9
				C62.2,634.9,50,574.4,50,512s12.2-122.9,36.3-179.8c23.3-55,56.6-104.4,99-146.9c42.4-42.4,91.9-75.8,146.9-99
				C389.1,62.2,449.6,50,512,50 M512,0C229.2,0,0,229.2,0,512s229.2,512,512,512s512-229.2,512-512S794.8,0,512,0L512,0z"/>
		</g>
		<path d="M665.2,402.4c-11.1-6.4-25.5-6.4-37.8,0l-86.6,49.5l-58.8,32.3l-86.6,49.5c-11.1,6.4-25.5,6.4-37.8,0L289,494.9
			c-11.1-6.4-18.9-18.3-18.9-31.2v-76.4c-0.1-13.1,7.1-25.2,18.9-31.2l67.7-37.7c11.1-6.4,25.5-6.4,37.8,0l67.7,37.7
			c11.1,6.4,18.9,18.3,18.9,31.2v49.5l58.8-33.3V354c0.1-13.1-7.2-25.2-18.9-31.2l-125.4-71c-11.1-6.4-25.5-6.4-37.8,0l-127.6,71
			c-11.7,6-19,18.1-18.9,31.2v143.1c-0.1,13.1,7.2,25.2,18.9,31.2l127.6,71c11.1,6.5,25.5,6.5,37.8,0l86.6-48.4l58.8-33.3l86.6-48.4
			c11.1-6.4,25.5-6.4,37.8,0l67.7,37.7c11.1,6.5,18.9,18.2,18.9,31.2v76.3c0.1,13.1-7.1,25.2-18.9,31.2l-67.7,38.8
			c-11.1,6.4-25.5,6.4-37.8,0l-67.7-37.7c-11.1-6.4-18.9-18.3-18.9-31.2v-49.5l-58.8,33.3v49.5c-0.1,13.1,7.2,25.2,18.9,31.2
			l127.6,71c11.1,6.5,25.5,6.5,37.8,0l127.6-71c11.1-6.5,18.9-18.2,18.9-31.2v-143c0.1-13.1-7.2-25.2-18.9-31.2L665.2,402.4z"/>
	</g>
</g>
</svg>
