<?xml version="1.0" encoding="utf-8"?>
<!-- Generator: Adobe Illustrator 25.2.0, SVG Export Plug-In . SVG Version: 6.00 Build 0)  -->
<svg version="1.1" id="Warstwa_1" xmlns="http://www.w3.org/2000/svg" xmlns:xlink="http://www.w3.org/1999/xlink" x="0px" y="0px"
	 viewBox="0 0 1024 1024" style="enable-background:new 0 0 1024 1024;" xml:space="preserve">
<style type="text/css">
	.st0{fill:#8247E5;}
	.st1{fill:#FFFFFF;}
</style>
<g id="b1649502-9aff-4f04-9557-73d261c0fe12">
	<g id="e0c28d34-80f1-4a58-8b30-cee47f1d7a5f">
		<circle class="st0" cx="512" cy="512" r="512"/>
		<path class="st1" d="M681.5,402.5c-12.3-7.1-28.2-7.1-41.8,0l-95.8,54.8L478.8,493L383,547.8c-12.3,7.1-28.2,7.1-41.8,0
			l-76.1-42.9c-12.3-7.1-20.9-20.2-20.9-34.5v-84.6c-0.1-14.5,7.9-27.9,20.9-34.5l74.9-41.7c12.3-7.1,28.2-7.1,41.8,0l74.9,41.7
			c12.3,7.1,20.9,20.2,20.9,34.5v54.8l65.1-36.9v-54.8c0.1-14.5-8-27.9-20.9-34.5L383,235.8c-12.3-7.1-28.2-7.1-41.8,0l-141.2,78.6
			c-12.9,6.6-21,20-20.9,34.5v158.4c-0.1,14.5,8,27.9,20.9,34.5l141.2,78.6c12.3,7.2,28.2,7.2,41.8,0l95.8-53.6l65.1-36.9l95.8-53.6
			c12.3-7.1,28.2-7.1,41.8,0l74.9,41.7c12.3,7.2,20.9,20.2,20.9,34.5V637c0.1,14.5-7.9,27.9-20.9,34.5l-74.9,42.9
			c-12.3,7.1-28.2,7.1-41.8,0l-74.9-41.7c-12.3-7.1-20.9-20.2-20.9-34.5v-54.8l-65.1,36.9v54.8c-0.1,14.5,8,27.9,20.9,34.5
			l141.2,78.6c12.3,7.2,28.2,7.2,41.8,0l141.2-78.6c12.3-7.2,20.9-20.2,20.9-34.5V516.8c0.1-14.5-8-27.9-20.9-34.5L681.5,402.5z"/>
	</g>
</g>
</svg>
