<?xml version="1.0" encoding="utf-8"?>
<!-- Generator: Adobe Illustrator 25.2.0, SVG Export Plug-In . SVG Version: 6.00 Build 0)  -->
<svg version="1.1" id="Warstwa_1" xmlns="http://www.w3.org/2000/svg" xmlns:xlink="http://www.w3.org/1999/xlink" x="0px" y="0px"
	 viewBox="0 0 24 24" style="enable-background:new 0 0 24 24;" xml:space="preserve">
<style type="text/css">
	.st0{fill:#323F5E;}
</style>
<path class="st0" d="M12,0C5.4,0,0,5.4,0,12s5.4,12,12,12s12-5.4,12-12S18.6,0,12,0L12,0z M15.8,18.2c-0.2,0.4-0.7,0.6-1.1,0.5h-0.1
	l-3.3-2.5l-2,1.8c-0.1,0.1-0.2,0.1-0.3,0l0.4-3.6l0,0v-0.1c0,0,5.9-5.3,6.1-5.6c0.2-0.2,0.2-0.3,0.2-0.3c0-0.3-0.4,0-0.4,0l-7.8,5
	l-3.2-1.1c0,0-0.5-0.2-0.5-0.6c0-0.4,0.6-0.6,0.6-0.6L17,6.2c0,0,1.1-0.5,1.1,0.3L15.8,18.2z"/>
</svg>
